<svg width="50" height="50" viewBox="0 0 50 50" fill="none" xmlns="http://www.w3.org/2000/svg">
<path d="M25 0C11.25 0 0 11.25 0 25C0 38.75 11.25 50 25 50C38.75 50 50 38.75 50 25C50 11.25 38.75 0 25 0ZM29.8214 32.6786C30.5357 33.3929 30.5357 34.4643 29.8214 35.1786C29.4643 35.5357 29.1071 35.7143 28.5714 35.7143C28.0357 35.7143 27.6786 35.5357 27.3214 35.1786L18.3929 26.25C17.6786 25.5357 17.6786 24.4643 18.3929 23.75L27.3214 14.8214C28.0357 14.1071 29.1071 14.1071 29.8214 14.8214C30.5357 15.5357 30.5357 16.6071 29.8214 17.3214L22.1429 25L29.8214 32.6786Z" fill="#D9D9D9"/>
</svg>
