<svg width="50" height="50" viewBox="0 0 50 50" fill="none" xmlns="http://www.w3.org/2000/svg">
<path d="M25 50C38.75 50 50 38.75 50 25C50 11.25 38.75 4.76837e-07 25 4.76837e-07C11.25 4.76837e-07 4.76837e-07 11.25 4.76837e-07 25C4.76837e-07 38.75 11.25 50 25 50ZM20.1786 17.3214C19.4643 16.6071 19.4643 15.5357 20.1786 14.8214C20.5357 14.4643 20.8929 14.2857 21.4286 14.2857C21.9643 14.2857 22.3214 14.4643 22.6786 14.8214L31.6071 23.75C32.3214 24.4643 32.3214 25.5357 31.6071 26.25L22.6786 35.1786C21.9643 35.8929 20.8929 35.8929 20.1786 35.1786C19.4643 34.4643 19.4643 33.3929 20.1786 32.6786L27.8571 25L20.1786 17.3214Z" fill="#D9D9D9"/>
</svg>
