<svg width="24" height="22" viewBox="0 0 24 22" fill="none" xmlns="http://www.w3.org/2000/svg">
<path d="M21.5005 7.00091C21.2571 7.00091 21.0219 7.03646 20.7976 7.1021C19.9225 3.04923 16.3099 0 12 0C7.69006 0 4.07475 3.04923 3.20237 7.1021C2.97812 7.03646 2.74294 7.00091 2.49954 7.00091C1.12124 7.00091 0 8.12215 0 9.50045V12.5005C0 13.8788 1.12124 15 2.49954 15C3.87785 15 4.99909 13.8788 4.99909 12.5005V9C4.99909 5.13856 8.13856 1.99909 12 1.99909C15.8614 1.99909 19.0009 5.13856 19.0009 9V12C19.0009 14.5187 17.6636 16.7967 15.5251 18.0438C15.0711 17.412 14.33 17.0018 13.4959 17.0018H10.4959C9.11759 17.0018 7.99635 18.1231 7.99635 19.5014C7.99635 20.8797 9.11759 22.0009 10.4959 22.0009H13.4959C14.6691 22.0009 15.6563 21.186 15.9243 20.0948C18.1559 19.0118 19.8022 17.0948 20.5515 14.814C20.8441 14.9344 21.1641 15 21.5005 15C22.8788 15 24 13.8788 24 12.5005V9.50045C24.0027 8.12215 22.8788 7.00091 21.5005 7.00091ZM3 12.5032C3 12.7794 2.77575 13.0036 2.49954 13.0036C2.22334 13.0036 1.99909 12.7794 1.99909 12.5032V9.50045C1.99909 9.22425 2.22334 9 2.49954 9C2.77575 9 3 9.22425 3 9.50045V12.5032ZM13.4959 20.0046H10.4959C10.2197 20.0046 9.99544 19.7803 9.99544 19.5041C9.99544 19.2279 10.2197 19.0036 10.4959 19.0036H13.4959C13.7721 19.0036 13.9964 19.2279 13.9964 19.5041C13.9964 19.7803 13.7721 20.0046 13.4959 20.0046ZM22.0009 12.5032C22.0009 12.7794 21.7767 13.0036 21.5005 13.0036C21.2242 13.0036 21 12.7794 21 12.5032V9.50319C21 9.22698 21.2242 9.00273 21.5005 9.00273C21.7767 9.00273 22.0009 9.22698 22.0009 9.50319V12.5032Z" fill="black"/>
<path d="M12 15.0027C14.2069 15.0027 16.0009 13.2088 16.0009 11.0018H14.0018C14.0018 12.1039 13.1048 13.0009 12.0027 13.0009C10.9006 13.0009 10.0036 12.1039 10.0036 11.0018H8.00456C7.99909 13.2088 9.79307 15.0027 12 15.0027Z" fill="black"/>
</svg>
