<svg width="150" height="227" viewBox="0 0 150 227" fill="none" xmlns="http://www.w3.org/2000/svg">
<rect x="30" y="15" width="90" height="109" fill="white"/>
<path d="M74.5 227C99.629 227 120 218.941 120 209C120 199.059 99.629 191 74.5 191C49.371 191 29 199.059 29 209C29 218.941 49.371 227 74.5 227Z" fill="#C7C7C7"/>
<path d="M75 0C55.1088 0 36.0322 7.90747 21.967 21.9829C7.90176 36.0583 0 55.1486 0 75.0542C0 127.405 67 161.5 75 207C82 161.5 150 127.405 150 75.0542C150 65.1979 148.06 55.4382 144.291 46.3322C140.522 37.2262 134.997 28.9523 128.033 21.9829C121.069 15.0134 112.801 9.48499 103.701 5.71316C94.6018 1.94133 84.8491 0 75 0ZM75 115.319C67.0337 115.359 59.2349 113.031 52.5919 108.631C45.9489 104.231 40.7606 97.956 37.6846 90.6022C34.6085 83.2483 33.7831 75.1462 35.3129 67.3224C36.8427 59.4987 40.659 52.3054 46.278 46.6542C51.897 41.003 59.0659 37.1482 66.8763 35.5783C74.6867 34.0084 82.787 34.794 90.1508 37.8355C97.5146 40.8771 103.81 46.0378 108.24 52.6636C112.671 59.2894 115.035 67.082 115.036 75.0542C115.044 85.7011 110.836 95.9175 103.331 103.465C95.8271 111.012 85.6392 115.275 75 115.319Z" fill="#41b883"/>
</svg>
