<svg width="34" height="24" viewBox="0 0 34 24" fill="none" xmlns="http://www.w3.org/2000/svg">
<g id="Group 158">
<rect id="BASE" x="0.5" y="0.5" width="33" height="23" rx="3.5" fill="white" stroke="#D9D9D9"/>
<g id="visa">
<path id="Vector" d="M27.8785 8.1123H26.2691C25.7826 8.1123 25.4083 8.26201 25.1838 8.74856L22.1147 15.7474H24.2855C24.2855 15.7474 24.6598 14.8117 24.7346 14.5872C24.9592 14.5872 27.0925 14.5872 27.3919 14.5872C27.4668 14.8492 27.6539 15.71 27.6539 15.71H29.6001L27.8785 8.1123ZM25.3335 13.0152C25.5206 12.5661 26.1569 10.8819 26.1569 10.8819C26.1569 10.9193 26.344 10.4328 26.4188 10.1708L26.5685 10.8445C26.5685 10.8445 26.9802 12.6784 27.0551 13.0527H25.3335V13.0152Z" fill="#3362AB"/>
<path id="Vector_2" d="M22.2644 13.2398C22.2644 14.8117 20.8421 15.8597 18.6339 15.8597C17.6983 15.8597 16.8 15.6725 16.3135 15.448L16.6129 13.7263L16.8749 13.8386C17.5486 14.138 17.9977 14.2503 18.8211 14.2503C19.4199 14.2503 20.0562 14.0257 20.0562 13.5018C20.0562 13.1649 19.7942 12.9404 18.9708 12.5661C18.1848 12.1918 17.1369 11.593 17.1369 10.5076C17.1369 9.01053 18.5965 8 20.655 8C21.441 8 22.1146 8.14971 22.5263 8.33684L22.2269 9.98363L22.0772 9.83392C21.703 9.68421 21.2164 9.5345 20.5053 9.5345C19.7193 9.57193 19.3451 9.90877 19.3451 10.2082C19.3451 10.545 19.7942 10.807 20.5053 11.1439C21.703 11.7053 22.2644 12.3415 22.2644 13.2398Z" fill="#3362AB"/>
<path id="Vector_3" d="M4 8.18731L4.03743 8.0376H7.25614C7.70527 8.0376 8.04211 8.18731 8.15439 8.67386L8.8655 12.0423C8.15439 10.2458 6.5076 8.78614 4 8.18731Z" fill="#F9B50B"/>
<path id="Vector_4" d="M13.394 8.11213L10.1379 15.7098H7.9297L6.05835 9.34722C7.40572 10.208 8.52853 11.5554 8.94022 12.4911L9.16478 13.277L11.1858 8.07471H13.394V8.11213Z" fill="#3362AB"/>
<path id="Vector_5" d="M14.255 8.07471H16.3135L15.0035 15.7098H12.9451L14.255 8.07471Z" fill="#3362AB"/>
</g>
</g>
</svg>
